<svg version="1.1" xmlns="http://www.w3.org/2000/svg" style="display: block;" viewBox="0 0 2048 2019" width="1118"
	height="1102" preserveAspectRatio="none">
	<path transform="translate(0,0)" fill="rgb(242,242,241)"
		d="M 49.7772 567.459 C 50.5994 551.436 53.8134 531.257 64.3194 518.471 C 151.239 412.689 240.229 308.479 328.266 203.609 C 332.792 199.233 340.273 189.021 345.854 186.418 C 376.561 172.095 410.271 161.565 442.223 150.298 C 498.82 130.088 555.537 110.213 612.37 90.6757 L 745.305 43.5862 C 785.091 29.6311 830.116 6.30928 868.776 35.5306 C 882.603 45.9202 893.11 60.1075 899.015 76.3636 C 907.568 100.424 910.684 150.103 914.07 177.535 L 940.465 389.338 C 1016.76 361.908 1092.89 334.001 1168.84 305.617 C 1286.58 262.443 1404.55 219.881 1522.74 177.931 C 1571.77 160.89 1620.72 143.598 1669.59 126.056 C 1693.78 117.494 1718.8 107.455 1743.26 100.317 C 1774.65 91.1551 1809.86 108.053 1827.3 134.736 C 1841.29 156.154 1854.94 178.553 1868.45 200.616 L 1936.31 310.999 C 1956.19 342.993 1975.86 375.118 1995.31 407.374 C 2019.68 447.541 2036.04 460.955 2027.34 509.891 C 2029.86 529.783 2018.43 652.175 2013.58 670.256 C 2009.22 686.52 2001.87 700.814 1991.59 714.137 C 1975.62 734.845 1954.21 752.273 1935.27 770.313 L 1797.23 900.203 C 1782.26 914.496 1756.23 936.981 1743.58 951.737 C 1758.53 976.16 1776.52 999.047 1792.73 1022.73 C 1841.11 1093.39 1891.44 1162.82 1939.55 1233.66 C 1969.42 1277.63 2002.42 1307.94 1983.4 1365 C 1984.79 1378.46 1976.76 1416.66 1974.38 1431.7 C 1969.39 1463.25 1965.7 1507.93 1951.43 1536.02 C 1938.41 1561.63 1914.11 1590.86 1896.36 1614.12 L 1827.01 1705.99 L 1709.2 1862.93 C 1686.93 1892.73 1665.67 1922.97 1642.16 1951.94 C 1629.42 1967.64 1612.84 1977.68 1592.48 1980.12 C 1568.18 1981.29 1540.75 1980.91 1516.22 1980.99 L 1351.12 1980.87 L 1190.12 1980.07 L 1128.6 1980.16 C 1092.87 1980.11 1069.79 1981.81 1048.47 1947.52 C 1035.82 1925.88 1022.2 1904.81 1009.46 1883.09 C 1006.35 1879.17 1004.34 1875.37 1001.83 1871.05 C 989.42 1850.94 969.813 1809.6 945.468 1803.97 C 935.659 1801.7 926.009 1804.04 917.657 1809.45 C 897.506 1822.51 857.101 1883.33 839.158 1904.77 C 824.007 1927.04 800.609 1956.76 778.253 1971.06 C 761.574 1979.6 756.448 1980.85 737.386 1980.88 C 715.856 1980.91 694.231 1980.81 672.698 1980.83 L 516.927 1980.82 L 367.752 1980.82 C 336.836 1980.73 281.38 1984.47 254.828 1971.07 C 244.403 1965.16 235.397 1957.05 228.438 1947.29 C 220.122 1935.83 214.252 1922.39 211.668 1908.51 C 205.811 1877.04 200.465 1844.93 195.411 1813.35 L 174.171 1682.49 L 110.584 1290.16 L 57.8492 964.912 L 41.319 862.531 C 33.279 812.675 26.5928 773.148 31.4539 721.936 C 35.6304 677.935 39.4549 635.506 46.2183 591.692 C 45.9823 588.2 49.0019 571.95 49.7772 567.459 z" />
	<path transform="translate(0,0)" fill="rgb(214,69,65)"
		d="M 46.2183 591.692 C 45.9823 588.2 49.0019 571.95 49.7772 567.459 C 50.2333 589.536 55.8254 617.859 59.5175 639.945 L 74.076 730.078 L 124.454 1039.77 L 205.61 1530.88 L 228.853 1671.41 C 233.417 1699.85 237.87 1729.02 243.436 1757.21 C 249.416 1787.51 281.482 1812.65 311.453 1815.21 C 330.36 1815.31 349.268 1815.3 368.176 1815.18 C 376.363 1815.18 392.707 1814.96 400.452 1815.9 C 407.781 1815.27 424.393 1815.73 432.447 1815.73 L 494.751 1815.74 L 680.079 1815.52 L 733.976 1815.6 C 799.67 1815.67 794.972 1806.81 833.256 1756.64 C 849.42 1734.11 872.432 1704.56 889.717 1682.78 L 922.969 1639.66 C 928.673 1632.27 933.675 1624.41 940.111 1617.68 C 959.714 1597.16 976.502 1634.52 983.444 1646.19 C 1012.91 1695.72 1042.8 1743.79 1072.62 1792.97 C 1077.89 1801.68 1084.79 1803.22 1089.46 1809.02 L 1087.6 1809.24 C 1085.03 1807.44 1078.95 1802.33 1076.62 1802.53 C 1082.48 1810.94 1098.38 1816.18 1108.02 1819.69 C 1117.13 1841.91 1107.78 1914.9 1097.97 1939.43 C 1092.03 1954.27 1083.56 1959.07 1080.16 1967.9 L 1078.01 1968.78 C 1071.42 1964.55 1057.2 1953.76 1055.14 1946.22 C 1052.7 1944.61 1054.05 1945.22 1050.21 1945.62 L 1048.47 1947.52 C 1035.82 1925.88 1022.2 1904.81 1009.46 1883.09 C 1006.35 1879.17 1004.34 1875.37 1001.83 1871.05 C 989.42 1850.94 969.813 1809.6 945.468 1803.97 C 935.659 1801.7 926.009 1804.04 917.657 1809.45 C 897.506 1822.51 857.101 1883.33 839.158 1904.77 C 824.007 1927.04 800.609 1956.76 778.253 1971.06 C 761.574 1979.6 756.448 1980.85 737.386 1980.88 C 715.856 1980.91 694.231 1980.81 672.698 1980.83 L 516.927 1980.82 L 367.752 1980.82 C 336.836 1980.73 281.38 1984.47 254.828 1971.07 C 244.403 1965.16 235.397 1957.05 228.438 1947.29 C 220.122 1935.83 214.252 1922.39 211.668 1908.51 C 205.811 1877.04 200.465 1844.93 195.411 1813.35 L 174.171 1682.49 L 110.584 1290.16 L 57.8492 964.912 L 41.319 862.531 C 33.279 812.675 26.5928 773.148 31.4539 721.936 C 35.6304 677.935 39.4549 635.506 46.2183 591.692 z" />
	<path transform="translate(0,0)" fill="rgb(158,48,99)"
		d="M 1983.4 1365 C 1984.79 1378.46 1976.76 1416.66 1974.38 1431.7 C 1969.39 1463.25 1965.7 1507.93 1951.43 1536.02 C 1938.41 1561.63 1914.11 1590.86 1896.36 1614.12 L 1827.01 1705.99 L 1709.2 1862.93 C 1686.93 1892.73 1665.67 1922.97 1642.16 1951.94 C 1629.42 1967.64 1612.84 1977.68 1592.48 1980.12 C 1568.18 1981.29 1540.75 1980.91 1516.22 1980.99 L 1351.12 1980.87 L 1190.12 1980.07 L 1128.6 1980.16 C 1092.87 1980.11 1069.79 1981.81 1048.47 1947.52 L 1050.21 1945.62 C 1054.05 1945.22 1052.7 1944.61 1055.14 1946.22 C 1057.2 1953.76 1071.42 1964.55 1078.01 1968.78 L 1080.16 1967.9 C 1083.56 1959.07 1092.03 1954.27 1097.97 1939.43 C 1107.78 1914.9 1117.13 1841.91 1108.02 1819.69 C 1098.38 1816.18 1082.48 1810.94 1076.62 1802.53 C 1078.95 1802.33 1085.03 1807.44 1087.6 1809.24 L 1089.46 1809.02 C 1109.51 1817.57 1128.49 1815.17 1149.89 1815.28 L 1217.81 1815.58 L 1433.37 1815.78 L 1564.93 1815.53 C 1587.6 1815.5 1614.28 1816.88 1636.45 1813.75 C 1643.94 1812.69 1657.39 1803.5 1662.49 1797.4 C 1680.77 1775.5 1698.1 1751.32 1715.08 1728.33 L 1802.03 1611.17 L 1921.62 1450.5 C 1939.84 1425.83 1967.37 1390.1 1983.4 1365 z" />
	<path transform="translate(0,0)" fill="rgb(199,78,50)"
		d="M 2027.34 509.891 C 2029.86 529.783 2018.43 652.175 2013.58 670.256 C 2009.22 686.52 2001.87 700.814 1991.59 714.137 C 1975.62 734.845 1954.21 752.273 1935.27 770.313 L 1797.23 900.203 C 1782.26 914.496 1756.23 936.981 1743.58 951.737 C 1731.33 936.961 1692.32 883.14 1687.08 867.132 C 1684.85 860.32 1685.63 857.212 1689.42 851.252 C 1698.58 836.852 1739.38 799.74 1753.34 786.089 L 1872.39 669.104 L 1934.04 609.337 C 1949.49 594.59 1964.78 579.688 1979.93 564.634 C 1996.65 548.102 2016.85 530.579 2027.34 509.891 z" />
	<path transform="translate(0,0)" fill="rgb(240,113,60)"
		d="M 341.818 1758.11 C 286.631 1763.16 288.203 1733.28 280.459 1691.35 L 264.432 1599.52 L 206.291 1257.99 L 141.792 866.631 C 130.237 799.998 119.415 733.24 109.328 666.369 C 104.376 635.117 98.3315 603.492 94.2658 572.128 C 93.1021 563.151 94.7154 552.044 99.9095 544.7 C 108.095 533.127 119.7 520.648 129.144 509.774 L 175.615 455.379 C 217.196 406.537 259.24 358.091 301.742 310.048 C 321.268 287.867 340.511 265.388 360.586 243.718 C 369.476 234.121 387.659 234.011 390.855 248.602 C 396.315 273.528 400.968 298.592 405.432 323.716 C 410.477 351.923 415.726 380.094 421.178 408.226 C 435.554 484.305 452.76 564.596 465.188 640.721 C 466.807 645.259 467.013 646.68 467.668 651.486 C 471.149 668.604 474.104 685.832 477.521 703.019 C 481.136 721.202 486.211 741.985 488.468 760.266 C 492.542 774.547 495.202 796.499 498.63 811.663 C 499.851 817.065 504.545 841.703 504.722 845.827 C 512 877.472 520.017 919.67 525.337 951.748 C 526.943 956.376 533.29 988.761 533.61 994.19 C 540.136 1027.25 549.517 1068.24 554.258 1100.82 C 556.948 1108.26 563.233 1140.67 563.991 1148.84 C 573.11 1188.44 578.56 1233.12 588.391 1272.17 C 592.792 1295.76 593.949 1325.77 613.402 1339.13 C 614.09 1339.6 614.782 1340.07 615.477 1340.53 C 627.486 1342.87 666.606 1342.03 680.97 1342.03 L 806.34 1341.99 L 968.161 1341.93 C 996.216 1341.91 1024.44 1342.36 1052.45 1341.14 C 1071.78 1340.3 1063.05 1314.16 1061.64 1301.74 C 1066.28 1306.89 1065.08 1315.72 1067.37 1322.21 L 1067.11 1317.79 C 1073.9 1357.22 1061.36 1384.83 1049.21 1421.02 C 1038.37 1454.11 1027.13 1487.07 1015.5 1519.88 C 1011.25 1531.87 1001.59 1556.68 999.681 1567.96 L 998.834 1568.73 L 999.095 1570.13 L 998.528 1570.94 C 990.727 1561.12 987.68 1560.57 978.794 1553.2 C 963.179 1549.44 952.581 1548.76 936.456 1550.94 C 932.085 1551.54 928.582 1553 924.506 1553.41 C 908.321 1566.46 878.25 1608.68 864.279 1626.94 L 777.73 1739.2 C 770.852 1749.39 767.993 1754.53 755.795 1757.7 C 734.251 1760.25 696.419 1759.13 673.673 1759.13 L 527.797 1759 L 404.035 1758.69 C 389.441 1758.66 355.251 1759.57 341.818 1758.11 z" />
	<path transform="translate(0,0)" fill="rgb(170,90,155)"
		d="M 978.995 852.444 C 981.011 849.431 982.949 846.479 986.016 844.44 C 995.468 838.158 1059.6 813.372 1071.22 811.039 C 1078.12 809.653 1085.59 809.286 1091.53 813.562 C 1105.35 823.508 1144.32 887.283 1156.32 904.989 L 1335.03 1170.55 L 1401.22 1269.69 C 1412.5 1286.59 1424.08 1304.35 1435.91 1320.89 C 1439.27 1325.59 1445.52 1328.47 1450.77 1331.1 C 1461.87 1333.93 1473.73 1333.15 1485.13 1333.32 C 1523.08 1333.9 1561.41 1332.68 1599.33 1333.81 C 1605.06 1332.51 1636.47 1333.15 1644.18 1333.34 C 1705.72 1334.83 1768.61 1331.3 1830 1333.16 L 1884.18 1332.65 C 1894.81 1332.52 1905.15 1332.37 1915.85 1332.86 C 1929.05 1333.46 1933.45 1343.49 1925.92 1354.27 C 1906.27 1382.39 1884.96 1409.86 1864.99 1437.81 C 1861.4 1442.82 1856.68 1449.73 1852.36 1453.99 C 1850.18 1458.4 1837.79 1473.91 1833.97 1479.05 L 1782.38 1548.19 C 1743.98 1600.14 1705.27 1651.86 1666.25 1703.34 C 1654.96 1718.18 1644.38 1733.89 1632.7 1748.37 C 1630.05 1751.65 1626.45 1755.12 1622.38 1756.54 C 1608.81 1761.29 1472.46 1759.03 1448.5 1759.04 C 1411.05 1759.05 1372.84 1760.7 1335.47 1758.93 C 1311.64 1760.82 1282.77 1759.16 1258.45 1759.18 C 1236.46 1759.2 1133.26 1761.6 1119.49 1757.44 C 1114.68 1755.98 1110.24 1749.68 1107.32 1745.69 C 1092.71 1725.77 1080.63 1702.94 1067.44 1681.97 C 1044.31 1645.23 1019.78 1608.8 998.528 1570.94 L 999.095 1570.13 L 998.834 1568.73 L 999.681 1567.96 C 1001.59 1556.68 1011.25 1531.87 1015.5 1519.88 C 1027.13 1487.07 1038.37 1454.11 1049.21 1421.02 C 1061.36 1384.83 1073.9 1357.22 1067.11 1317.79 L 1067.37 1322.21 C 1065.08 1315.72 1066.28 1306.89 1061.64 1301.74 C 1058.9 1293.15 1054.2 1264.58 1052.33 1254.59 L 1032.67 1148.41 L 993.72 943.949 L 984.799 896.005 C 981.879 880.509 978.241 868.21 978.995 852.444 z" />
	<path transform="translate(0,0)" fill="rgb(140,60,140)"
		d="M 1563.99 1719.71 C 1565.21 1719.83 1568 1719.67 1569.36 1719.64 L 1569.9 1720.84 L 1568.34 1723.44 C 1565.24 1723.04 1564 1722.58 1562.1 1720.55 L 1563.99 1719.71 z" />
	<path transform="translate(0,0)" fill="rgb(220,100,70)"
		d="M 1715.98 565.591 C 1736.58 557.511 1759.31 549.913 1780.32 542.378 C 1810.35 531.294 1840.48 520.467 1870.69 509.899 L 1918.97 492.977 C 1928.8 489.501 1951.42 479.438 1959.55 483.552 C 1981.33 494.574 1947.97 521.41 1941.8 527.616 L 1897.13 572.41 C 1821.12 648.937 1744.4 724.768 1666.99 799.891 C 1654.7 811.944 1642.78 824.705 1630.43 836.728 C 1625.93 841.115 1619.84 848.09 1615.23 851.7 C 1612.74 854.015 1609.83 855.822 1606.64 857.018 C 1585.76 865.108 1569.96 833.47 1559.63 818.96 C 1545 798.567 1530.5 778.082 1516.13 757.506 C 1497.42 730.963 1475.87 704.684 1459.87 676.593 C 1456.54 670.742 1464.3 657.583 1471.05 654.532 C 1483.38 648.962 1495.56 644.62 1508.25 640.048 L 1571.97 617.52 C 1619.81 600.608 1668.08 581.706 1715.98 565.591 z" />
</svg>