<svg xmlns="http://www.w3.org/2000/svg" fill="none" viewBox="0 0 34 34">
  <g fill="#fff" clip-path="url(#velocity_svg__a)">
    <path
      d="m15.949 15.137-4.22-5.758a.925.925 0 0 0-.93-.36l-6.731 1.36a.927.927 0 0 0-.625.458L.116 16.852a.924.924 0 0 0 .063.994l4.23 5.775a.926.926 0 0 0 .93.36l6.711-1.355a.925.925 0 0 0 .624-.46l3.339-6.032a.926.926 0 0 0-.064-.997m-4.64 5.791a.746.746 0 0 1-1.044-.16l-2.42-3.297a1.248 1.248 0 0 0-1.248-.484l-4.103.83a.748.748 0 0 1-.3-1.466l4.449-.9a1.249 1.249 0 0 0 .844-.617l2.232-4.032a.748.748 0 0 1 1.37.154.747.747 0 0 1-.063.568L8.97 15.25a1.249 1.249 0 0 0 .085 1.34l2.42 3.295a.748.748 0 0 1-.164 1.043M30.01 16.182a.767.767 0 1 0 0-1.534.767.767 0 0 0 0 1.534"></path>
    <path
      d="M33.276 17.716H19.403a.767.767 0 0 1 0-1.534h8.29a.768.768 0 0 0 0-1.535h-5.479a.767.767 0 1 1 0-1.534h8.3a.768.768 0 0 0 0-1.535H13.34l2.608 3.56a.925.925 0 0 1 .064.994l-3.339 6.032a.919.919 0 0 1-.109.156H29.13a.767.767 0 1 0 0-1.534h-4.177a.768.768 0 1 1 0-1.535h8.323a.769.769 0 1 0 0-1.535"></path>
  </g>
  <defs>
    <clipPath id="velocity_svg__a">
      <path fill="#fff" d="M0 0h34v34H0z"></path>
    </clipPath>
  </defs>
</svg>