<svg xmlns="http://www.w3.org/2000/svg" width="115" height="29" viewBox="0 0 115 29">
  <metadata><?xpacket begin="﻿" id="W5M0MpCehiHzreSzNTczkc9d"?>
<x:xmpmeta xmlns:x="adobe:ns:meta/" x:xmptk="Adobe XMP Core 5.6-c142 79.160924, 2017/07/13-01:06:39        ">
   <rdf:RDF xmlns:rdf="http://www.w3.org/1999/02/22-rdf-syntax-ns#">
      <rdf:Description rdf:about=""/>
   </rdf:RDF>
</x:xmpmeta>
                                                                                                    
                                                                                                    
                                                                                                    
                                                                                                    
                                                                                                    
                                                                                                    
                                                                                                    
                                                                                                    
                                                                                                    
                                                                                                    
                                                                                                    
                                                                                                    
                                                                                                    
                                                                                                    
                                                                                                    
                                                                                                    
                                                                                                    
                                                                                                    
                                                                                                    
                                                                                                    
                           
<?xpacket end="w"?></metadata>
<defs>
    <style>
      .cls-1 {
        fill: #fff;
        fill-rule: evenodd;
      }
    </style>
  </defs>
  <path id="Kubek" class="cls-1" d="M23,0H15L7.36,11.76V0H0.2V28H7.36V15.48L15.4,28h8L14.12,13.6ZM36.18,21.34a3.114,3.114,0,0,1-2.42.94,2.93,2.93,0,0,1-2.2-.82,3.21,3.21,0,0,1-.8-2.34V8H24.12V19.96a9.185,9.185,0,0,0,2.02,6.34,6.813,6.813,0,0,0,5.34,2.26A6.332,6.332,0,0,0,37.04,26v2h6.64V8H37.04V18.64A3.862,3.862,0,0,1,36.18,21.34ZM54.16,9.84V0H47.52V28h6.64V26.16a7.052,7.052,0,0,0,5.68,2.4,8.669,8.669,0,0,0,6.68-3A11.014,11.014,0,0,0,69.24,18a10.868,10.868,0,0,0-2.72-7.52,8.544,8.544,0,0,0-6.68-3.04,7.052,7.052,0,0,0-5.68,2.4h0Zm0,8.16a4.44,4.44,0,0,1,1.16-3.16,4.451,4.451,0,0,1,6.08,0A4.443,4.443,0,0,1,62.56,18a4.442,4.442,0,0,1-1.16,3.16,4.451,4.451,0,0,1-6.08,0A4.439,4.439,0,0,1,54.16,18Zm37.96-.04a10.265,10.265,0,0,0-2.92-7.52,9.889,9.889,0,0,0-7.4-3,10.326,10.326,0,0,0-10.64,10.6A10.178,10.178,0,0,0,74.2,25.6a11.279,11.279,0,0,0,8.16,2.96q5.679,0,8.6-3.72l-4.8-3.36a5.185,5.185,0,0,1-3.64,1.4q-3.48,0-4.48-2.44h13.8a9.936,9.936,0,0,0,.28-2.48h0ZM81.88,13.04a3.515,3.515,0,0,1,3.76,2.8H77.96a3.687,3.687,0,0,1,3.92-2.8h0ZM114.44,8h-7.68l-5.16,8.36V0H94.96V28h6.64V19.48L107.28,28h7.44l-7-10Z"/>
</svg>
