<svg xmlns="http://www.w3.org/2000/svg" version="1.1" xmlns:xlink="http://www.w3.org/1999/xlink" xmlns:svgjs="http://svgjs.dev/svgjs" width="500" height="1000" preserveAspectRatio="none" viewBox="0 0 500 1000"><g mask="url(&quot;#SvgjsMask1204&quot;)" fill="none"><rect width="500" height="1000" x="0" y="0" fill="url(&quot;#SvgjsLinearGradient1205&quot;)"></rect><use xlink:href="#SvgjsSymbol1212" x="0" y="0"></use><use xlink:href="#SvgjsSymbol1212" x="0" y="720"></use></g><defs><mask id="SvgjsMask1204"><rect width="500" height="1000" fill="#ffffff"></rect></mask><linearGradient x1="0%" y1="50%" x2="100%" y2="50%" gradientUnits="userSpaceOnUse" id="SvgjsLinearGradient1205"><stop stop-color="rgba(14, 42, 71, 0)" offset="0"></stop><stop stop-color="rgba(34, 44, 58, 1)" offset="1"></stop></linearGradient><path d="M-1 0 a1 1 0 1 0 2 0 a1 1 0 1 0 -2 0z" id="SvgjsPath1210"></path><path d="M-3 0 a3 3 0 1 0 6 0 a3 3 0 1 0 -6 0z" id="SvgjsPath1209"></path><path d="M-5 0 a5 5 0 1 0 10 0 a5 5 0 1 0 -10 0z" id="SvgjsPath1206"></path><path d="M2 -2 L-2 2z" id="SvgjsPath1208"></path><path d="M6 -6 L-6 6z" id="SvgjsPath1207"></path><path d="M30 -30 L-30 30z" id="SvgjsPath1211"></path></defs><symbol id="SvgjsSymbol1212"><use xlink:href="#SvgjsPath1206" x="30" y="30" stroke="rgba(26, 86, 219, 1)"></use><use xlink:href="#SvgjsPath1206" x="30" y="90" stroke="rgba(26, 86, 219, 1)"></use><use xlink:href="#SvgjsPath1207" x="30" y="150" stroke="rgba(26, 86, 219, 1)"></use><use xlink:href="#SvgjsPath1206" x="30" y="210" stroke="rgba(26, 86, 219, 1)"></use><use xlink:href="#SvgjsPath1206" x="30" y="270" stroke="rgba(26, 86, 219, 1)"></use><use xlink:href="#SvgjsPath1208" x="30" y="330" stroke="rgba(26, 86, 219, 1)"></use><use xlink:href="#SvgjsPath1207" x="30" y="390" stroke="rgba(26, 86, 219, 1)"></use><use xlink:href="#SvgjsPath1206" x="30" y="450" stroke="rgba(26, 86, 219, 1)"></use><use xlink:href="#SvgjsPath1207" x="30" y="510" stroke="rgba(26, 86, 219, 1)"></use><use xlink:href="#SvgjsPath1206" x="30" y="570" stroke="rgba(26, 86, 219, 1)"></use><use xlink:href="#SvgjsPath1206" x="30" y="630" stroke="rgba(26, 86, 219, 1)"></use><use xlink:href="#SvgjsPath1206" x="30" y="690" stroke="rgba(26, 86, 219, 1)"></use><use xlink:href="#SvgjsPath1208" x="90" y="30" stroke="rgba(26, 86, 219, 1)"></use><use xlink:href="#SvgjsPath1206" x="90" y="90" stroke="rgba(26, 86, 219, 1)"></use><use xlink:href="#SvgjsPath1209" x="90" y="150" stroke="rgba(26, 86, 219, 1)"></use><use xlink:href="#SvgjsPath1207" x="90" y="210" stroke="rgba(26, 86, 219, 1)"></use><use xlink:href="#SvgjsPath1206" x="90" y="270" stroke="rgba(26, 86, 219, 1)"></use><use xlink:href="#SvgjsPath1208" x="90" y="330" stroke="rgba(26, 86, 219, 1)"></use><use xlink:href="#SvgjsPath1207" x="90" y="390" stroke="rgba(26, 86, 219, 1)"></use><use xlink:href="#SvgjsPath1209" x="90" y="450" stroke="rgba(26, 86, 219, 1)"></use><use xlink:href="#SvgjsPath1206" x="90" y="510" stroke="rgba(26, 86, 219, 1)"></use><use xlink:href="#SvgjsPath1206" x="90" y="570" stroke="rgba(26, 86, 219, 1)"></use><use xlink:href="#SvgjsPath1207" x="90" y="630" stroke="rgba(26, 86, 219, 1)"></use><use xlink:href="#SvgjsPath1206" x="90" y="690" stroke="rgba(26, 86, 219, 1)"></use><use xlink:href="#SvgjsPath1207" x="150" y="30" stroke="rgba(26, 86, 219, 1)"></use><use xlink:href="#SvgjsPath1207" x="150" y="90" stroke="rgba(26, 86, 219, 1)"></use><use xlink:href="#SvgjsPath1207" x="150" y="150" stroke="rgba(26, 86, 219, 1)"></use><use xlink:href="#SvgjsPath1210" x="150" y="210" stroke="rgba(26, 86, 219, 1)"></use><use xlink:href="#SvgjsPath1206" x="150" y="270" stroke="rgba(26, 86, 219, 1)"></use><use xlink:href="#SvgjsPath1207" x="150" y="330" stroke="rgba(26, 86, 219, 1)"></use><use xlink:href="#SvgjsPath1206" x="150" y="390" stroke="rgba(26, 86, 219, 1)"></use><use xlink:href="#SvgjsPath1206" x="150" y="450" stroke="rgba(26, 86, 219, 1)"></use><use xlink:href="#SvgjsPath1210" x="150" y="510" stroke="rgba(26, 86, 219, 1)"></use><use xlink:href="#SvgjsPath1207" x="150" y="570" stroke="rgba(26, 86, 219, 1)"></use><use xlink:href="#SvgjsPath1206" x="150" y="630" stroke="rgba(26, 86, 219, 1)"></use><use xlink:href="#SvgjsPath1206" x="150" y="690" stroke="rgba(26, 86, 219, 1)"></use><use xlink:href="#SvgjsPath1207" x="210" y="30" stroke="rgba(26, 86, 219, 1)"></use><use xlink:href="#SvgjsPath1209" x="210" y="90" stroke="rgba(26, 86, 219, 1)"></use><use xlink:href="#SvgjsPath1210" x="210" y="150" stroke="rgba(26, 86, 219, 1)"></use><use xlink:href="#SvgjsPath1206" x="210" y="210" stroke="rgba(26, 86, 219, 1)"></use><use xlink:href="#SvgjsPath1210" x="210" y="270" stroke="rgba(26, 86, 219, 1)"></use><use xlink:href="#SvgjsPath1207" x="210" y="330" stroke="rgba(26, 86, 219, 1)"></use><use xlink:href="#SvgjsPath1206" x="210" y="390" stroke="rgba(26, 86, 219, 1)"></use><use xlink:href="#SvgjsPath1207" x="210" y="450" stroke="rgba(26, 86, 219, 1)"></use><use xlink:href="#SvgjsPath1207" x="210" y="510" stroke="rgba(26, 86, 219, 1)"></use><use xlink:href="#SvgjsPath1210" x="210" y="570" stroke="rgba(26, 86, 219, 1)"></use><use xlink:href="#SvgjsPath1206" x="210" y="630" stroke="rgba(26, 86, 219, 1)"></use><use xlink:href="#SvgjsPath1207" x="210" y="690" stroke="rgba(26, 86, 219, 1)"></use><use xlink:href="#SvgjsPath1207" x="270" y="30" stroke="rgba(26, 86, 219, 1)"></use><use xlink:href="#SvgjsPath1211" x="270" y="90" stroke="rgba(26, 86, 219, 1)" stroke-width="3"></use><use xlink:href="#SvgjsPath1208" x="270" y="150" stroke="rgba(26, 86, 219, 1)"></use><use xlink:href="#SvgjsPath1209" x="270" y="210" stroke="rgba(26, 86, 219, 1)"></use><use xlink:href="#SvgjsPath1207" x="270" y="270" stroke="rgba(26, 86, 219, 1)"></use><use xlink:href="#SvgjsPath1208" x="270" y="330" stroke="rgba(26, 86, 219, 1)"></use><use xlink:href="#SvgjsPath1206" x="270" y="390" stroke="rgba(26, 86, 219, 1)"></use><use xlink:href="#SvgjsPath1209" x="270" y="450" stroke="rgba(26, 86, 219, 1)"></use><use xlink:href="#SvgjsPath1206" x="270" y="510" stroke="rgba(26, 86, 219, 1)"></use><use xlink:href="#SvgjsPath1207" x="270" y="570" stroke="rgba(26, 86, 219, 1)"></use><use xlink:href="#SvgjsPath1208" x="270" y="630" stroke="rgba(26, 86, 219, 1)"></use><use xlink:href="#SvgjsPath1207" x="270" y="690" stroke="rgba(26, 86, 219, 1)"></use><use xlink:href="#SvgjsPath1209" x="330" y="30" stroke="rgba(26, 86, 219, 1)"></use><use xlink:href="#SvgjsPath1209" x="330" y="90" stroke="rgba(26, 86, 219, 1)"></use><use xlink:href="#SvgjsPath1206" x="330" y="150" stroke="rgba(26, 86, 219, 1)"></use><use xlink:href="#SvgjsPath1207" x="330" y="210" stroke="rgba(26, 86, 219, 1)"></use><use xlink:href="#SvgjsPath1207" x="330" y="270" stroke="rgba(26, 86, 219, 1)"></use><use xlink:href="#SvgjsPath1211" x="330" y="330" stroke="rgba(26, 86, 219, 1)" stroke-width="3"></use><use xlink:href="#SvgjsPath1207" x="330" y="390" stroke="rgba(26, 86, 219, 1)"></use><use xlink:href="#SvgjsPath1207" x="330" y="450" stroke="rgba(26, 86, 219, 1)"></use><use xlink:href="#SvgjsPath1207" x="330" y="510" stroke="rgba(26, 86, 219, 1)"></use><use xlink:href="#SvgjsPath1207" x="330" y="570" stroke="rgba(26, 86, 219, 1)"></use><use xlink:href="#SvgjsPath1207" x="330" y="630" stroke="rgba(26, 86, 219, 1)"></use><use xlink:href="#SvgjsPath1206" x="330" y="690" stroke="rgba(26, 86, 219, 1)"></use><use xlink:href="#SvgjsPath1207" x="390" y="30" stroke="rgba(26, 86, 219, 1)"></use><use xlink:href="#SvgjsPath1207" x="390" y="90" stroke="rgba(26, 86, 219, 1)"></use><use xlink:href="#SvgjsPath1208" x="390" y="150" stroke="rgba(26, 86, 219, 1)"></use><use xlink:href="#SvgjsPath1210" x="390" y="210" stroke="rgba(26, 86, 219, 1)"></use><use xlink:href="#SvgjsPath1207" x="390" y="270" stroke="rgba(26, 86, 219, 1)"></use><use xlink:href="#SvgjsPath1207" x="390" y="330" stroke="rgba(26, 86, 219, 1)"></use><use xlink:href="#SvgjsPath1207" x="390" y="390" stroke="rgba(26, 86, 219, 1)"></use><use xlink:href="#SvgjsPath1206" x="390" y="450" stroke="rgba(26, 86, 219, 1)"></use><use xlink:href="#SvgjsPath1206" x="390" y="510" stroke="rgba(26, 86, 219, 1)"></use><use xlink:href="#SvgjsPath1207" x="390" y="570" stroke="rgba(26, 86, 219, 1)"></use><use xlink:href="#SvgjsPath1207" x="390" y="630" stroke="rgba(26, 86, 219, 1)"></use><use xlink:href="#SvgjsPath1206" x="390" y="690" stroke="rgba(26, 86, 219, 1)"></use><use xlink:href="#SvgjsPath1207" x="450" y="30" stroke="rgba(26, 86, 219, 1)"></use><use xlink:href="#SvgjsPath1207" x="450" y="90" stroke="rgba(26, 86, 219, 1)"></use><use xlink:href="#SvgjsPath1209" x="450" y="150" stroke="rgba(26, 86, 219, 1)"></use><use xlink:href="#SvgjsPath1208" x="450" y="210" stroke="rgba(26, 86, 219, 1)"></use><use xlink:href="#SvgjsPath1208" x="450" y="270" stroke="rgba(26, 86, 219, 1)"></use><use xlink:href="#SvgjsPath1207" x="450" y="330" stroke="rgba(26, 86, 219, 1)"></use><use xlink:href="#SvgjsPath1206" x="450" y="390" stroke="rgba(26, 86, 219, 1)"></use><use xlink:href="#SvgjsPath1209" x="450" y="450" stroke="rgba(26, 86, 219, 1)"></use><use xlink:href="#SvgjsPath1206" x="450" y="510" stroke="rgba(26, 86, 219, 1)"></use><use xlink:href="#SvgjsPath1209" x="450" y="570" stroke="rgba(26, 86, 219, 1)"></use><use xlink:href="#SvgjsPath1207" x="450" y="630" stroke="rgba(26, 86, 219, 1)"></use><use xlink:href="#SvgjsPath1206" x="450" y="690" stroke="rgba(26, 86, 219, 1)"></use><use xlink:href="#SvgjsPath1207" x="510" y="30" stroke="rgba(26, 86, 219, 1)"></use><use xlink:href="#SvgjsPath1207" x="510" y="90" stroke="rgba(26, 86, 219, 1)"></use><use xlink:href="#SvgjsPath1210" x="510" y="150" stroke="rgba(26, 86, 219, 1)"></use><use xlink:href="#SvgjsPath1209" x="510" y="210" stroke="rgba(26, 86, 219, 1)"></use><use xlink:href="#SvgjsPath1207" x="510" y="270" stroke="rgba(26, 86, 219, 1)"></use><use xlink:href="#SvgjsPath1206" x="510" y="330" stroke="rgba(26, 86, 219, 1)"></use><use xlink:href="#SvgjsPath1206" x="510" y="390" stroke="rgba(26, 86, 219, 1)"></use><use xlink:href="#SvgjsPath1208" x="510" y="450" stroke="rgba(26, 86, 219, 1)"></use><use xlink:href="#SvgjsPath1207" x="510" y="510" stroke="rgba(26, 86, 219, 1)"></use><use xlink:href="#SvgjsPath1207" x="510" y="570" stroke="rgba(26, 86, 219, 1)"></use><use xlink:href="#SvgjsPath1207" x="510" y="630" stroke="rgba(26, 86, 219, 1)"></use><use xlink:href="#SvgjsPath1207" x="510" y="690" stroke="rgba(26, 86, 219, 1)"></use></symbol></svg>